<svg width="35" height="35" viewBox="0 0 35 35" fill="none" xmlns="http://www.w3.org/2000/svg">
<path fill-rule="evenodd" clip-rule="evenodd" d="M31.7704 6.76485C32.7467 5.78852 32.7467 4.20562 31.7704 3.2293C30.7942 2.253 29.2112 2.253 28.2349 3.2293L17.5 13.9643L6.76497 3.2293C5.78864 2.253 4.20574 2.253 3.22942 3.2293C2.25312 4.20562 2.25312 5.78852 3.22942 6.76485L13.9644 17.4998L3.22942 28.2348C2.25312 29.2111 2.25312 30.7941 3.22942 31.7703C4.20574 32.7466 5.78864 32.7466 6.76497 31.7703L17.5 21.0354L28.2349 31.7703C29.2112 32.7466 30.7942 32.7466 31.7704 31.7703C32.7467 30.7941 32.7467 29.2111 31.7704 28.2348L21.0355 17.4998L31.7704 6.76485Z" fill="#ED5003"/>
</svg>
