<svg width="51" height="34" viewBox="0 0 51 34" fill="none" xmlns="http://www.w3.org/2000/svg">
<g clip-path="url(#clip0_46_168)">
<path d="M0.531249 10.2141L23.9062 27.8799C24.1168 28.0283 24.3704 28.1464 24.6518 28.2272C24.9331 28.3079 25.2362 28.3496 25.5425 28.3496C25.8488 28.3496 26.1519 28.3079 26.4332 28.2272C26.7146 28.1464 26.9682 28.0283 27.1787 27.8799L50.4687 10.2141C50.6556 10.0738 50.7988 9.91009 50.89 9.73256C50.9812 9.55503 51.0186 9.36719 51 9.17994C50.977 8.99119 50.8974 8.80744 50.766 8.63954C50.6346 8.47165 50.454 8.32302 50.235 8.20244L46.3037 6.00661C46.0764 5.87352 45.809 5.77435 45.5195 5.71571C45.2299 5.65708 44.925 5.64034 44.625 5.66661C44.3434 5.68019 44.0688 5.73103 43.817 5.81616C43.5653 5.90129 43.3415 6.01901 43.1587 6.16244L25.7975 19.5499C25.6901 19.6209 25.545 19.6607 25.3937 19.6607C25.2425 19.6607 25.0974 19.6209 24.99 19.5499L7.735 6.16244C7.55225 6.01901 7.32847 5.90129 7.07672 5.81616C6.82497 5.73103 6.55029 5.68019 6.26875 5.66661C5.9873 5.64844 5.70325 5.6679 5.43323 5.72385C5.16321 5.7798 4.91266 5.87111 4.69625 5.99244L0.764997 8.20244C0.545956 8.32302 0.365401 8.47165 0.234004 8.63954C0.102608 8.80744 0.0230369 8.99119 -2.38384e-06 9.17994C-0.0186059 9.36719 0.0187777 9.55503 0.109976 9.73256C0.201174 9.91009 0.34437 10.0738 0.531249 10.2141Z" fill="white"/>
</g>
<defs>
<clipPath id="clip0_46_168">
<rect width="34" height="51" fill="white" transform="matrix(0 1 -1 0 51 0)"/>
</clipPath>
</defs>
</svg>
