<svg width="21" height="21" viewBox="0 0 21 21" fill="none" xmlns="http://www.w3.org/2000/svg">
<g clip-path="url(#clip0_17_186)">
<path d="M6.30876 20.7811L17.22 11.1561C17.3116 11.0694 17.3846 10.9649 17.4345 10.8491C17.4844 10.7332 17.5101 10.6084 17.5101 10.4823C17.5101 10.3562 17.4844 10.2314 17.4345 10.1155C17.3846 9.99969 17.3116 9.89524 17.22 9.80856L6.30876 0.218557C6.22208 0.141608 6.12098 0.0826445 6.01133 0.0450923C5.90168 0.00754011 5.78566 -0.0078528 5.67001 -0.000192542C5.55343 0.00929424 5.43993 0.0420584 5.33623 0.0961629C5.23253 0.150267 5.14073 0.224614 5.06626 0.314807L3.71001 1.93356C3.62781 2.02718 3.56655 2.13729 3.53034 2.2565C3.49412 2.37571 3.48378 2.50128 3.50001 2.62481C3.50839 2.74074 3.5398 2.85384 3.59238 2.9575C3.64496 3.06116 3.71767 3.15331 3.80626 3.22856L12.075 10.3773C12.1188 10.4215 12.1434 10.4813 12.1434 10.5436C12.1434 10.6058 12.1188 10.6656 12.075 10.7098L3.80626 17.8148C3.71767 17.8901 3.64496 17.9822 3.59238 18.0859C3.5398 18.1895 3.50839 18.3026 3.50001 18.4186C3.48879 18.5344 3.50081 18.6514 3.53536 18.7626C3.56992 18.8738 3.62632 18.9769 3.70126 19.0661L5.06626 20.6848C5.14073 20.775 5.23253 20.8493 5.33623 20.9035C5.43993 20.9576 5.55343 20.9903 5.67001 20.9998C5.78566 21.0075 5.90168 20.9921 6.01133 20.9545C6.12098 20.917 6.22208 20.858 6.30876 20.7811Z" fill="#003399"/>
</g>
<defs>
<clipPath id="clip0_17_186">
<rect width="21" height="21" fill="white"/>
</clipPath>
</defs>
</svg>
