<svg width="21" height="21" viewBox="0 0 21 21" fill="none" xmlns="http://www.w3.org/2000/svg">
<g clip-path="url(#clip0_17_175)">
<path d="M14.6912 0.218741L3.78 9.84374C3.68838 9.93042 3.6154 10.0349 3.56553 10.1507C3.51565 10.2666 3.48993 10.3914 3.48993 10.5175C3.48993 10.6436 3.51565 10.7684 3.56553 10.8843C3.6154 11.0001 3.68838 11.1046 3.78 11.1912L14.6912 20.8162C14.7779 20.8932 14.879 20.9522 14.9887 20.9897C15.0983 21.0273 15.2143 21.0427 15.33 21.035C15.4466 21.0255 15.5601 20.9927 15.6638 20.9386C15.7675 20.8845 15.8593 20.8102 15.9337 20.72L17.29 19.1012C17.3665 19.0128 17.4245 18.91 17.4605 18.7987C17.4966 18.6875 17.51 18.5702 17.5 18.4537C17.4916 18.3378 17.4602 18.2247 17.4076 18.121C17.355 18.0174 17.2823 17.9252 17.1937 17.85L8.925 10.6662C8.88118 10.622 8.8566 10.5623 8.8566 10.5C8.8566 10.4377 8.88118 10.378 8.925 10.3337L17.1937 3.18499C17.3627 3.04354 17.4721 2.84356 17.5 2.62499C17.5112 2.5091 17.4992 2.39214 17.4646 2.28095C17.4301 2.16977 17.3737 2.0666 17.2987 1.97749L15.9337 0.314991C15.8593 0.224797 15.7675 0.150451 15.6638 0.096346C15.5601 0.0422415 15.4466 0.00947735 15.33 -9.43674e-06C15.2143 -0.0076697 15.0983 0.00772321 14.9887 0.0452754C14.879 0.0828276 14.7779 0.141791 14.6912 0.218741Z" fill="#fff"/>
</g>
<defs>
<clipPath id="clip0_17_175">
<rect width="21" height="21" fill="white"/>
</clipPath>
</defs>
</svg>
