
<svg xmlns="http://www.w3.org/2000/svg" fill="none" viewBox="0 0 48 48" id="Locate--Streamline-Ionic-Filled" height="48" width="48">
  <desc>
    Locate Streamline Icon: https://streamlinehq.com
  </desc>
  <path stroke="#ffffff" stroke-linecap="round" stroke-linejoin="round" stroke-width="4.5" d="M23.9994 7.1994V3.0003"></path>
  <path stroke="#ffffff" stroke-linecap="round" stroke-linejoin="round" stroke-width="4.5" d="M23.9994 44.9997v-4.1992"></path>
  <path stroke="#ffffff" stroke-linecap="round" stroke-linejoin="round" stroke-width="4.5" d="M24.0003 8.881c-2.9904 0 -5.9138 0.8867 -8.4003 2.5481 -2.4865 1.6615 -4.4246 4.0229 -5.5689 6.7858 -1.1444 2.7628 -1.4438 5.803 -0.8604 8.736 0.5834 2.933 2.0235 5.6272 4.1381 7.7417 2.1146 2.1146 4.8087 3.5547 7.7417 4.138 2.933 0.5834 5.9732 0.2841 8.7359 -0.8603 2.7629 -1.1444 5.1245 -3.0824 6.7858 -5.5689 1.6615 -2.4866 2.5482 -5.4098 2.5482 -8.4003 0 -4.0101 -1.5929 -7.856 -4.4286 -10.6916 -2.8355 -2.8355 -6.6814 -4.4285 -10.6915 -4.4285Z"></path>
  <path stroke="#ffffff" stroke-linecap="round" stroke-linejoin="round" stroke-width="4.5" d="M40.8009 24.0007h4.199"></path>
  <path stroke="#ffffff" stroke-linecap="round" stroke-linejoin="round" stroke-width="4.5" d="M3.0001 24.0007h4.1991"></path>
</svg>