<svg xmlns="http://www.w3.org/2000/svg" fill="none" viewBox="0 0 48 48" id="Government-Building-2--Streamline-Plump-Gradient" height="48" width="48">
  <desc>
    Government Building 2 Streamline Icon: https://streamlinehq.com
  </desc>
  <g id="government-building-2--government-building-travel-places">
    <path id="Union" fill="url(#paint0_linear_6614_1017)" fill-rule="evenodd" d="M31.9997 9.5h-6.5v3.0007c7.4108.0071 11.9877.0652 13.9803.0974 1.2289.0199 2.6765.7809 2.9181 2.4195.0245.1658.0457.3444.0623.5363-2.9341-.0212-8.9894-.0539-18.4607-.0539-9.4712 0-15.52652.0327-18.46064.0539.01662-.1919.03783-.3705.06227-.5363.24167-1.6386 1.68922-2.3996 2.91812-2.4195 1.99265-.0322 6.56955-.0903 13.98025-.0974V3c0-.82843.6716-1.5 1.5-1.5h8c.4978 0 .9631.2469 1.2421.65906.2791.41216.3355.93589.1507 1.39803L32.6153 5.5l.7772 1.94291c.1848.46214.1284.98587-.1507 1.39803-.279.41216-.7443.65906-1.2421.65906ZM1.5 20.5c0-.7892.20101-1.4019.43901-1.8402.46824-.8625 1.33435-1.0867 1.89637-1.092C5.40246 17.5532 11.9198 17.5 24 17.5s18.5975.0532 20.1646.0678c.562.0053 1.4281.2295 1.8964 1.092.238.4383.439 1.051.439 1.8402 0 .7892-.201 1.4019-.439 1.8402-.4683.8625-1.3344 1.0867-1.8964 1.092-.1658.0015-.3871.0035-.6646.0058l0 17.124c.1008.0008.1942.0016.2802.0024.1508.0013.2788.0024.3844.0034.562.0053 1.4281.2295 1.8964 1.092.238.4383.439 1.051.439 1.8402 0 .7892-.201 1.4019-.439 1.8402-.4683.8625-1.3344 1.0867-1.8964 1.092-1.5671.0146-8.0844.0678-20.1646.0678s-18.59755-.0532-20.16462-.0678c-.56202-.0053-1.42813-.2295-1.89637-1.092C1.70101 44.9019 1.5 44.2892 1.5 43.5c0-.7892.20101-1.4019.43901-1.8402.46824-.8625 1.33435-1.0867 1.89637-1.092.16585-.0015.38715-.0035.66462-.0058l0-17.124c-.27747-.0023-.49877-.0043-.66462-.0058-.56202-.0053-1.42813-.2295-1.89637-1.092C1.70101 21.9019 1.5 21.2892 1.5 20.5Zm13.5 19c.8278 0 1.5-.6699 1.5-1.499l0-10.5025c0-1.6572-1.3435-2.9985-3-2.9985s-3 1.3413-3 2.9985l0 10.5025c0 .8291.6722 1.499 1.5 1.499h3Zm10.5 0c.8278 0 1.5-.6699 1.5-1.499V27.4985c0-1.6572-1.3435-2.9985-3-2.9985s-3 1.3413-3 2.9985l0 10.5025c0 .8291.6722 1.499 1.5 1.499h3Zm10.5 0c.8278 0 1.5-.6699 1.5-1.499V27.4985c0-1.6572-1.3435-2.9985-3-2.9985s-3 1.3413-3 2.9985l0 10.5025c0 .8291.6722 1.499 1.5 1.499h3Z" clip-rule="evenodd"></path>
  </g>
  <defs>
    <linearGradient id="paint0_linear_6614_1017" x1="50.4" x2="-10.299" y1="56.031" y2="12.915" gradientUnits="userSpaceOnUse">
      <stop stop-color="#003399"></stop>
      <stop offset="1" stop-color="#CF4602"></stop>
    </linearGradient>
  </defs>
</svg>