<svg xmlns="http://www.w3.org/2000/svg" fill="none" viewBox="0 0 24 24" id="Pins-Distance--Streamline-Sharp" height="24" width="24">
  <desc>
    Pins Distance Streamline Icon: https://streamlinehq.com
  </desc>
  <g id="Solid/02-Map-Travel/01-Map/pins-distance--pins-distance-map-location-gps-navigation-travel">
    <path id="Union" fill="#ffffff" fill-rule="evenodd" d="m17.92 12.5881 0.0023 0.0016 0.5777 0.4088 0.5777 -0.4088 0.0023 -0.0016 0.0039 -0.0028 0.0126 -0.009 0.0438 -0.0318c0.0371 -0.0271 0.0899 -0.0661 0.1561 -0.1161 0.1322 -0.1 0.3185 -0.2444 0.5409 -0.4268 0.4432 -0.3635 1.0374 -0.8839 1.6352 -1.5086 0.5948 -0.62159 1.2138 -1.36774 1.6888 -2.18462C23.6327 7.49782 24 6.5531 24 5.55317 24 2.49734 21.5486 0 18.5 0S13 2.49734 13 5.55317c0 0.99993 0.3673 1.94465 0.8387 2.75521 0.475 0.81688 1.094 1.56303 1.6888 2.18462 0.5978 0.6247 1.192 1.1451 1.6352 1.5086 0.2224 0.1824 0.4087 0.3268 0.5409 0.4268 0.0662 0.05 0.119 0.089 0.1561 0.1161l0.0438 0.0318 0.0126 0.009 0.0039 0.0028ZM19.75 4.25h-2.5v2.5h2.5v-2.5ZM4.92004 23.5881l0.00227 0.0016 0.57769 0.4088 0.57769 -0.4088 0.00227 -0.0016 0.0039 -0.0028 0.01262 -0.009 0.04379 -0.0318c0.03716 -0.0271 0.08994 -0.0661 0.15611 -0.1161 0.13225 -0.1 0.31853 -0.2444 0.5409 -0.4268 0.4432 -0.3635 1.03741 -0.8839 1.63522 -1.5086 0.59479 -0.6216 1.21377 -1.3677 1.6888 -2.1846 0.4714 -0.8106 0.8387 -1.7553 0.8387 -2.7552C11 13.4973 8.54861 11 5.5 11S0 13.4973 0 16.5532c0 0.9999 0.367297 1.9446 0.838674 2.7552 0.475056 0.8169 1.094036 1.563 1.688826 2.1846 0.59781 0.6247 1.19202 1.1451 1.63522 1.5086 0.22237 0.1824 0.40865 0.3268 0.5409 0.4268 0.06617 0.05 0.11895 0.089 0.15611 0.1161l0.0438 0.0318 0.01261 0.009 0.0039 0.0028ZM6.75 15.25h-2.5v2.5h2.5v-2.5ZM10.5 24c4.9706 0 9 -4.0294 9 -9h-2c0 3.866 -3.134 7 -7 7H10v2h0.5Z" clip-rule="evenodd" stroke-width="1"></path>
  </g>
</svg>