<svg width="71" height="71" viewBox="0 0 71 71" fill="none" xmlns="http://www.w3.org/2000/svg">
<path fill-rule="evenodd" clip-rule="evenodd" d="M35.2412 0C22.1772 0 11.3343 10.096 10.4035 23.1269C9.97163 29.1725 11.3133 35.6034 15.2735 40.8035C19.6555 46.5575 24.1329 50.504 30.953 55.0453C33.7053 56.8776 37.2925 56.8776 40.0448 55.0453C46.865 50.504 51.3421 46.5575 55.7243 40.8035C59.6846 35.6034 61.026 29.1725 60.5944 23.1269C59.6638 10.096 48.8206 0 35.7566 0H35.2412ZM35.5003 16.8833C33.0263 16.8833 30.9144 17.583 29.4223 19.0752C27.9302 20.5673 27.2304 22.6792 27.2304 25.1532C27.2304 27.6272 27.9302 29.7391 29.4223 31.2312C30.9144 32.7233 33.0263 33.4231 35.5003 33.4231C37.9743 33.4231 40.0862 32.7233 41.5783 31.2312C43.0705 29.7391 43.7702 27.6272 43.7702 25.1532C43.7702 22.6792 43.0705 20.5673 41.5783 19.0752C40.0862 17.583 37.9743 16.8833 35.5003 16.8833ZM27.4392 60.3216C21.146 56.1316 16.5156 52.2631 12.1989 47.1113C10.9694 47.6646 9.90484 48.5794 9.15437 49.7742C6.42736 54.1162 4.31965 58.6516 2.75414 63.6429C1.83127 66.5848 3.75887 69.9127 7.05236 70.1166C26.0525 71.2936 44.9476 71.2941 63.9477 70.1186C67.2593 69.9132 69.1844 66.5544 68.234 63.6059C66.6244 58.6115 64.4766 54.0751 61.7132 49.7375C60.9794 48.5854 59.9524 47.6974 58.7682 47.1471C54.46 52.2814 49.8364 56.1412 43.5577 60.3216C38.6775 63.5714 32.3194 63.5714 27.4392 60.3216Z" fill="#ED5003"/>
<circle cx="35.5" cy="25.5" r="9.5" fill="#ED5003"/>
<path d="M36.0417 16.25C35.6328 16.25 35.2407 16.4124 34.9515 16.7015C34.6624 16.9907 34.5 17.3828 34.5 17.7917V26.2708C34.5 26.6797 34.6624 27.0718 34.9515 27.361C35.2407 27.6501 35.6328 27.8125 36.0417 27.8125H43.75C44.1589 27.8125 44.551 27.6501 44.8401 27.361C45.1292 27.0718 45.2917 26.6797 45.2917 26.2708C45.2917 25.862 45.1292 25.4698 44.8401 25.1807C44.551 24.8916 44.1589 24.7292 43.75 24.7292H37.9071C37.8049 24.7292 37.7068 24.6886 37.6346 24.6163C37.5623 24.544 37.5217 24.446 37.5217 24.3438V17.7917C37.522 17.3933 37.3681 17.0102 37.0921 16.7228C36.8162 16.4354 36.4398 16.2659 36.0417 16.25Z" fill="#003399"/>
<path d="M35.3787 8.94251C32.0619 9.07175 28.8593 10.1885 26.1813 12.1496C23.5033 14.1108 21.4719 16.8269 20.3475 19.95C20.3167 20.0325 20.2586 20.1019 20.1829 20.1468C20.1072 20.1917 20.0184 20.2093 19.9312 20.1967L17.3258 19.8113C17.1824 19.792 17.0365 19.812 16.9035 19.869C16.7705 19.926 16.6554 20.0179 16.5704 20.135C16.4955 20.2581 16.4559 20.3995 16.4559 20.5436C16.4559 20.6877 16.4955 20.829 16.5704 20.9521L20.625 28.1979C20.6892 28.3071 20.7787 28.3991 20.8861 28.4662C20.9935 28.5333 21.1154 28.5735 21.2417 28.5833C21.3588 28.5962 21.4773 28.5835 21.589 28.5463C21.7008 28.509 21.8032 28.448 21.8892 28.3675L27.7012 22.5863C27.803 22.4854 27.8747 22.3582 27.9082 22.2188C27.9417 22.0795 27.9357 21.9336 27.8909 21.7975C27.846 21.6614 27.7641 21.5405 27.6544 21.4483C27.5446 21.3562 27.4114 21.2965 27.2696 21.2758L24.6179 20.875C24.5597 20.8642 24.5047 20.8406 24.4567 20.8059C24.4087 20.7713 24.369 20.7264 24.3404 20.6746C24.3134 20.6222 24.2993 20.564 24.2993 20.505C24.2993 20.446 24.3134 20.3879 24.3404 20.3354C25.2584 18.256 26.7163 16.4602 28.5627 15.1345C30.4091 13.8087 32.5766 13.0013 34.8404 12.7962C37.1042 12.591 39.3816 12.9955 41.4362 13.9677C43.4909 14.9399 45.2479 16.4443 46.5248 18.3248C47.8017 20.2053 48.552 22.3933 48.6978 24.6616C48.8436 26.93 48.3795 29.196 47.3539 31.2245C46.3282 33.253 44.7782 34.9699 42.8649 36.1971C40.9516 37.4243 38.7447 38.117 36.4733 38.2033C35.9622 38.2217 35.4794 38.4424 35.131 38.8168C34.7826 39.1912 34.5972 39.6887 34.6156 40.1998C34.634 40.7109 34.8547 41.1938 35.2291 41.5421C35.6035 41.8905 36.101 42.0759 36.6121 42.0575C41.0054 41.896 45.1547 39.9959 48.1471 36.7751C51.1395 33.5543 52.7298 29.2767 52.5683 24.8833C52.4068 20.49 50.5067 16.3407 47.2859 13.3483C44.0651 10.356 39.7875 8.76559 35.3942 8.9271L35.3787 8.94251Z" fill="#003399"/>
</svg>
