<svg width="51" height="34" viewBox="0 0 51 34" fill="none" xmlns="http://www.w3.org/2000/svg">
<g clip-path="url(#clip0_46_168)">
<path d="M50.4688 23.7859L27.0938 6.12006C26.8832 5.97172 26.6296 5.85357 26.3482 5.77282C26.0669 5.69207 25.7638 5.65042 25.4575 5.65042C25.1512 5.65042 24.8481 5.69207 24.5668 5.77282C24.2854 5.85357 24.0318 5.97172 23.8213 6.12006L0.531258 23.7859C0.344379 23.9262 0.201183 24.0899 0.109985 24.2674C0.0187869 24.445 -0.0185959 24.6328 7.59934e-06 24.8201C0.0230469 25.0088 0.102617 25.1926 0.234014 25.3605C0.36541 25.5284 0.545966 25.677 0.765008 25.7976L4.69626 27.9934C4.92364 28.1265 5.19103 28.2257 5.48054 28.2843C5.77005 28.3429 6.07501 28.3597 6.37501 28.3334C6.65656 28.3198 6.93123 28.269 7.18297 28.1838C7.43472 28.0987 7.65851 27.981 7.84126 27.8376L25.2025 14.4501C25.3099 14.3791 25.455 14.3393 25.6063 14.3393C25.7575 14.3393 25.9026 14.3791 26.01 14.4501L43.265 27.8376C43.4478 27.981 43.6715 28.0987 43.9233 28.1838C44.175 28.269 44.4497 28.3198 44.7313 28.3334C45.0127 28.3516 45.2967 28.3321 45.5668 28.2761C45.8368 28.2202 46.0873 28.1289 46.3038 28.0076L50.235 25.7976C50.454 25.677 50.6346 25.5284 50.766 25.3605C50.8974 25.1926 50.977 25.0088 51 24.8201C51.0186 24.6328 50.9812 24.445 50.89 24.2674C50.7988 24.0899 50.6556 23.9262 50.4688 23.7859Z" fill="white"/>
</g>
<defs>
<clipPath id="clip0_46_168">
<rect width="34" height="51" fill="white" transform="matrix(0 -1 1 0 0 34)"/>
</clipPath>
</defs>
</svg>
