<svg width="40" height="40" viewBox="0 0 40 40" fill="none" xmlns="http://www.w3.org/2000/svg">
<path fill-rule="evenodd" clip-rule="evenodd" d="M19.8542 0C12.4942 0 6.38552 5.68791 5.86112 13.0292C5.61783 16.4352 6.37372 20.0582 8.6048 22.9879C11.0735 26.2296 13.596 28.453 17.4383 31.0114C18.9889 32.0437 21.0099 32.0437 22.5605 31.0114C26.4028 28.453 28.9251 26.2296 31.394 22.9879C33.6251 20.0582 34.3809 16.4352 34.1377 13.0292C33.6134 5.68791 27.5046 0 20.1446 0H19.8542ZM20.0002 9.51171C18.6064 9.51171 17.4166 9.90594 16.576 10.7466C15.7353 11.5872 15.3411 12.777 15.3411 14.1708C15.3411 15.5646 15.7353 16.7544 16.576 17.5951C17.4166 18.4357 18.6064 18.8299 20.0002 18.8299C21.394 18.8299 22.5838 18.4357 23.4244 17.5951C24.2651 16.7544 24.6593 15.5646 24.6593 14.1708C24.6593 12.777 24.2651 11.5872 23.4244 10.7466C22.5838 9.90594 21.394 9.51171 20.0002 9.51171ZM15.4587 33.984C11.9133 31.6234 9.30458 29.444 6.87263 26.5416C6.17998 26.8533 5.5802 27.3687 5.1574 28.0418C3.62106 30.488 2.43362 33.0431 1.55164 35.8551C1.03172 37.5126 2.11769 39.3874 3.97318 39.5023C14.6775 40.1654 25.3226 40.1657 36.0269 39.5034C37.8926 39.3877 38.9771 37.4954 38.4417 35.8343C37.5349 33.0206 36.3249 30.4649 34.768 28.0211C34.3546 27.3721 33.776 26.8718 33.1089 26.5617C30.6817 29.4543 28.0768 31.6289 24.5396 33.984C21.7902 35.8149 18.2081 35.8149 15.4587 33.984Z" fill="#B3B5B4"/>
<circle cx="20" cy="14.3663" r="5.35211" fill="#B3B5B4"/>
<g clip-path="url(#clip0_111_165)">
<path fill-rule="evenodd" clip-rule="evenodd" d="M20 25C25.5229 25 30 20.5229 30 15C30 9.47716 25.5229 5 20 5C14.4772 5 10 9.47716 10 15C10 20.5229 14.4772 25 20 25ZM25.004 12.455C25.3736 11.993 25.2987 11.3187 24.8366 10.9491C24.3746 10.5794 23.7003 10.6543 23.3307 11.1164L18.2651 17.4483L16.2387 15.9286C15.7653 15.5735 15.0938 15.6695 14.7387 16.1429C14.3837 16.6162 14.4796 17.2878 14.953 17.6429L17.8102 19.7857C18.2731 20.133 18.9282 20.0497 19.2897 19.5979L25.004 12.455Z" fill="#003399"/>
</g>
<defs>
<clipPath id="clip0_111_165">
<rect width="20" height="20" fill="white" transform="translate(10 5)"/>
</clipPath>
</defs>
</svg>
